<svg aria-hidden="true" style="position: absolute; width: 0; height: 0; overflow: hidden;" version="1.1" xmlns="http://www.w3.org/2000/svg" xmlns:xlink="http://www.w3.org/1999/xlink">
<defs>
<symbol id="icon-bookmark" viewBox="0 0 20 20">
<title>bookmark</title>
<path d="M14 2v17l-4-4-4 4v-17c0-0.553 0.585-1.020 1-1h6c0.689-0.020 1 0.447 1 1z"></path>
</symbol>
<symbol id="icon-open-book" viewBox="0 0 20 20">
<title>open-book</title>
<path d="M10.595 5.196l0.446 1.371c0.369-0.316 0.835-0.599 1.441-0.795 0.59-0.192 1.111-0.3 1.582-0.362l-0.43-1.323c-0.476 0.069-1.001 0.18-1.58 0.368s-1.055 0.45-1.459 0.741zM11.522 8.051l0.446 1.371c0.369-0.316 0.835-0.599 1.441-0.795 0.59-0.192 1.111-0.3 1.582-0.362l-0.43-1.323c-0.476 0.069-1.001 0.18-1.58 0.368-0.578 0.187-1.054 0.449-1.459 0.741zM12.45 10.905l0.446 1.371c0.369-0.316 0.835-0.599 1.441-0.795 0.59-0.192 1.111-0.3 1.582-0.362l-0.43-1.323c-0.476 0.069-1.001 0.18-1.58 0.368-0.579 0.187-1.055 0.45-1.459 0.741zM5.388 13.077l0.43 1.323c0.417-0.226 0.902-0.445 1.492-0.636 0.606-0.197 1.149-0.242 1.633-0.203l-0.446-1.371c-0.499 0.002-1.038 0.070-1.615 0.257-0.579 0.188-1.069 0.406-1.494 0.63zM3.533 7.368l0.43 1.323c0.417-0.226 0.902-0.444 1.492-0.636 0.606-0.197 1.149-0.242 1.633-0.203l-0.445-1.372c-0.499 0.003-1.038 0.070-1.616 0.258-0.579 0.188-1.069 0.406-1.494 0.63zM4.46 10.223l0.43 1.323c0.417-0.226 0.902-0.445 1.492-0.636 0.606-0.197 1.149-0.242 1.633-0.203l-0.445-1.372c-0.499 0.002-1.038 0.070-1.615 0.257-0.579 0.188-1.070 0.407-1.495 0.631zM11.064 1.41c-1.723 0.56-2.623 1.752-3.053 2.559-0.822-0.4-2.25-0.835-3.973-0.275-2.523 0.82-3.969 2.627-3.969 2.627l4.095 12.587c0.126 0.387 0.646 0.477 0.878 0.143 0.499-0.719 1.46-1.658 3.257-2.242 1.718-0.558 2.969 0.054 3.655 0.578 0.272 0.208 0.662 0.060 0.762-0.268 0.252-0.827 0.907-2.040 2.61-2.593 1.799-0.585 3.129-0.389 3.956-0.1 0.385 0.134 0.75-0.242 0.625-0.629l-4.088-12.594c0 0-2.232-0.612-4.755 0.207zM10.951 15.256c-0.819-0.244-1.901-0.358-3.141 0.044-1.251 0.406-2.127 0.949-2.699 1.404l-3.245-9.982c0.358-0.358 1.187-1.042 2.662-1.521 1.389-0.451 2.528-0.065 3.279 0.378l3.144 9.677zM17.845 12.567c-0.731-0.032-1.759 0.044-3.010 0.451-1.24 0.403-2.048 1.132-2.567 1.81l-3.144-9.677c0.346-0.8 1.040-1.782 2.43-2.233 1.474-0.479 2.547-0.413 3.047-0.334l3.244 9.983z"></path>
</symbol>
<symbol id="icon-upload-to-cloud" viewBox="0 0 20 20">
<title>upload-to-cloud</title>
<path d="M15.213 6.639c-0.276 0-0.546 0.025-0.809 0.068-0.656-2.145-2.688-3.707-5.095-3.707-2.939 0-5.32 2.328-5.32 5.199 0 0.256 0.020 0.508 0.057 0.756-0.141-0.017-0.283-0.027-0.429-0.027-1.998 0-3.617 1.582-3.617 3.535s1.619 3.537 3.617 3.537h4.383v-4h-2.5l4.5-5 4.5 5h-2.5v4h3.213c2.643 0 4.787-2.096 4.787-4.68 0-2.586-2.144-4.681-4.787-4.681z"></path>
</symbol>
<symbol id="icon-emoji-happy" viewBox="0 0 20 20">
<title>emoji-happy</title>
<path d="M10 0.4c-5.302 0-9.6 4.298-9.6 9.6s4.298 9.6 9.6 9.6c5.301 0 9.6-4.298 9.6-9.601 0-5.301-4.299-9.599-9.6-9.599zM10 17.599c-4.197 0-7.6-3.402-7.6-7.6s3.402-7.599 7.6-7.599c4.197 0 7.601 3.402 7.601 7.6s-3.404 7.599-7.601 7.599zM7.501 9.75c0.828 0 1.499-0.783 1.499-1.75s-0.672-1.75-1.5-1.75-1.5 0.783-1.5 1.75 0.672 1.75 1.501 1.75zM12.5 9.75c0.829 0 1.5-0.783 1.5-1.75s-0.672-1.75-1.5-1.75-1.5 0.784-1.5 1.75 0.672 1.75 1.5 1.75zM14.341 11.336c-0.363-0.186-0.815-0.043-1.008 0.32-0.034 0.066-0.869 1.593-3.332 1.593-2.451 0-3.291-1.513-3.333-1.592-0.188-0.365-0.632-0.514-1.004-0.329-0.37 0.186-0.52 0.636-0.335 1.007 0.050 0.099 1.248 2.414 4.672 2.414 3.425 0 4.621-2.316 4.67-2.415 0.184-0.367 0.036-0.81-0.33-0.998z"></path>
</symbol>
<symbol id="icon-heart" viewBox="0 0 20 20">
<title>heart</title>
<path d="M17.19 4.155c-1.672-1.534-4.383-1.534-6.055 0l-1.135 1.042-1.136-1.042c-1.672-1.534-4.382-1.534-6.054 0-1.881 1.727-1.881 4.52 0 6.246l7.19 6.599 7.19-6.599c1.88-1.726 1.88-4.52 0-6.246z"></path>
</symbol>
<symbol id="icon-home" viewBox="0 0 20 20">
<title>home</title>
<path d="M18.672 11h-1.672v6c0 0.445-0.194 1-1 1h-4v-6h-4v6h-4c-0.806 0-1-0.555-1-1v-6h-1.672c-0.598 0-0.47-0.324-0.060-0.748l8.024-8.032c0.195-0.202 0.451-0.302 0.708-0.312 0.257 0.010 0.513 0.109 0.708 0.312l8.023 8.031c0.411 0.425 0.539 0.749-0.059 0.749z"></path>
</symbol>
<symbol id="icon-magnifying-glass" viewBox="0 0 20 20">
<title>magnifying-glass</title>
<path d="M17.545 15.467l-3.779-3.779c0.57-0.935 0.898-2.035 0.898-3.21 0-3.417-2.961-6.377-6.378-6.377s-6.186 2.769-6.186 6.186c0 3.416 2.961 6.377 6.377 6.377 1.137 0 2.2-0.309 3.115-0.844l3.799 3.801c0.372 0.371 0.975 0.371 1.346 0l0.943-0.943c0.371-0.371 0.236-0.84-0.135-1.211zM4.004 8.287c0-2.366 1.917-4.283 4.282-4.283s4.474 2.107 4.474 4.474c0 2.365-1.918 4.283-4.283 4.283s-4.473-2.109-4.473-4.474z"></path>
</symbol>
<symbol id="icon-mail" viewBox="0 0 20 20">
<title>mail</title>
<path d="M1.574 5.286c0.488 0.262 7.248 3.894 7.5 4.029s0.578 0.199 0.906 0.199c0.328 0 0.654-0.064 0.906-0.199s7.012-3.767 7.5-4.029c0.489-0.263 0.951-1.286 0.054-1.286h-16.919c-0.897 0-0.435 1.023 0.053 1.286zM18.613 7.489c-0.555 0.289-7.387 3.849-7.727 4.027s-0.578 0.199-0.906 0.199-0.566-0.021-0.906-0.199-7.133-3.739-7.688-4.028c-0.39-0.204-0.386 0.035-0.386 0.219s0 7.293 0 7.293c0 0.42 0.566 1 1 1h16c0.434 0 1-0.58 1-1 0 0 0-7.108 0-7.292s0.004-0.423-0.387-0.219z"></path>
</symbol>
<symbol id="icon-paper-plane" viewBox="0 0 20 20">
<title>paper-plane</title>
<path d="M18.64 2.634c-0.344 0.121-17.321 6.104-17.656 6.222-0.284 0.1-0.347 0.345-0.010 0.479 0.401 0.161 3.796 1.521 3.796 1.521v0l2.25 0.901c0 0 10.838-7.958 10.984-8.066 0.148-0.108 0.318 0.095 0.211 0.211s-7.871 8.513-7.871 8.513v0.002l-0.452 0.503 0.599 0.322c0 0 4.65 2.504 4.982 2.682 0.291 0.156 0.668 0.027 0.752-0.334 0.099-0.426 2.845-12.261 2.906-12.525 0.079-0.343-0.148-0.552-0.491-0.431zM7 17.162c0 0.246 0.139 0.315 0.331 0.141 0.251-0.229 2.85-2.561 2.85-2.561l-3.181-1.644v4.064z"></path>
</symbol>
<symbol id="icon-rss" viewBox="0 0 20 20">
<title>rss</title>
<path d="M2.4 2.4v2.367c7.086 0 12.83 5.746 12.83 12.832h2.369c0-8.394-6.805-15.199-15.199-15.199zM2.4 7.137v2.369c4.469 0 8.093 3.623 8.093 8.094h2.368c0-5.778-4.684-10.463-10.461-10.463zM4.669 13.059c-1.254 0-2.27 1.018-2.27 2.271s1.016 2.27 2.27 2.27 2.269-1.016 2.269-2.27-1.015-2.271-2.269-2.271z"></path>
</symbol>
<symbol id="icon-star" viewBox="0 0 20 20">
<title>star</title>
<path d="M10 1.3l2.388 6.722h6.412l-5.232 3.948 1.871 6.928-5.439-4.154-5.438 4.154 1.87-6.928-5.233-3.948h6.412l2.389-6.722z"></path>
</symbol>
<symbol id="icon-thumbs-up" viewBox="0 0 20 20">
<title>thumbs-up</title>
<path d="M13.648 7.362c-0.133-0.355 3.539-3.634 1.398-6.291-0.501-0.621-2.201 2.975-4.615 4.603-1.332 0.898-4.431 2.81-4.431 3.867v6.842c0 1.271 4.914 2.617 8.648 2.617 1.369 0 3.352-8.576 3.352-9.938 0-1.368-4.221-1.344-4.352-1.7zM5 7.457c-0.658 0-3 0.4-3 3.123v4.848c0 2.721 2.342 3.021 3 3.021 0.657 0-1-0.572-1-2.26v-6.373c0-1.768 1.657-2.359 1-2.359z"></path>
</symbol>
<symbol id="icon-facebook" viewBox="0 0 20 20">
<title>facebook</title>
<path d="M17 1h-14c-1.1 0-2 0.9-2 2v14c0 1.101 0.9 2 2 2h7v-7h-2v-2.475h2v-2.050c0-2.164 1.212-3.684 3.766-3.684l1.803 0.002v2.605h-1.197c-0.994 0-1.372 0.746-1.372 1.438v1.69h2.568l-0.568 2.474h-2v7h4c1.1 0 2-0.899 2-2v-14c0-1.1-0.9-2-2-2z"></path>
</symbol>
<symbol id="icon-google-with-circle" viewBox="0 0 20 20">
<title>google-with-circle</title>
<path d="M10 0.4c-5.302 0-9.6 4.298-9.6 9.6s4.298 9.6 9.6 9.6 9.6-4.298 9.6-9.6-4.298-9.6-9.6-9.6zM9.447 14.121c-0.603 0.293-1.252 0.324-1.503 0.324-0.048 0-0.075 0-0.075 0s-0.023 0-0.054 0c-0.392 0-2.343-0.090-2.343-1.867 0-1.746 2.125-1.883 2.776-1.883h0.017c-0.376-0.502-0.298-1.008-0.298-1.008-0.033 0.002-0.081 0.004-0.14 0.004-0.245 0-0.718-0.039-1.124-0.301-0.498-0.32-0.75-0.865-0.75-1.619 0-2.131 2.327-2.217 2.35-2.219h2.324v0.051c0 0.26-0.467 0.311-0.785 0.354-0.108 0.016-0.325 0.037-0.386 0.068 0.589 0.315 0.684 0.809 0.684 1.545 0 0.838-0.328 1.281-0.676 1.592-0.216 0.193-0.385 0.344-0.385 0.547 0 0.199 0.232 0.402 0.502 0.639 0.441 0.389 1.046 0.918 1.046 1.811 0 0.923-0.397 1.583-1.18 1.962zM14.5 10h-1.5v1.5h-1v-1.5h-1.5v-1h1.5v-1.5h1v1.5h1.5v1zM8.223 11.15c-0.052 0-0.104 0.002-0.157 0.006-0.444 0.033-0.854 0.199-1.15 0.469-0.294 0.266-0.444 0.602-0.423 0.941 0.045 0.711 0.808 1.127 1.735 1.061 0.912-0.066 1.52-0.592 1.476-1.303-0.042-0.668-0.623-1.174-1.481-1.174zM9.097 7.285c-0.242-0.85-0.632-1.102-1.238-1.102-0.065 0-0.131 0.010-0.194 0.027-0.263 0.075-0.472 0.294-0.588 0.62-0.119 0.33-0.126 0.674-0.024 1.066 0.185 0.701 0.683 1.209 1.185 1.209 0.066 0 0.132-0.008 0.194-0.027 0.549-0.154 0.893-0.992 0.665-1.793z"></path>
</symbol>
<symbol id="icon-twitter-with-circle" viewBox="0 0 20 20">
<title>twitter-with-circle</title>
<path d="M10 0.4c-5.302 0-9.6 4.298-9.6 9.6s4.298 9.6 9.6 9.6 9.6-4.298 9.6-9.6-4.298-9.6-9.6-9.6zM13.905 8.264c0.004 0.082 0.005 0.164 0.005 0.244 0 2.5-1.901 5.381-5.379 5.381-1.068 0-2.062-0.312-2.898-0.85 0.147 0.018 0.298 0.025 0.451 0.025 0.886 0 1.701-0.301 2.348-0.809-0.827-0.016-1.525-0.562-1.766-1.312 0.115 0.021 0.233 0.033 0.355 0.033 0.172 0 0.34-0.023 0.498-0.066-0.865-0.174-1.517-0.938-1.517-1.854v-0.023c0.255 0.141 0.547 0.227 0.857 0.237-0.508-0.34-0.841-0.918-0.841-1.575 0-0.346 0.093-0.672 0.256-0.951 0.933 1.144 2.325 1.896 3.897 1.977-0.033-0.139-0.049-0.283-0.049-0.432 0-1.043 0.846-1.891 1.891-1.891 0.543 0 1.035 0.23 1.38 0.598 0.431-0.086 0.835-0.242 1.2-0.459-0.141 0.441-0.44 0.812-0.831 1.047 0.383-0.047 0.747-0.148 1.086-0.299-0.253 0.379-0.574 0.713-0.943 0.979z"></path>
</symbol>
</defs>
</svg>
